<svg class="svg-ico-fax" xmlns="http://www.w3.org/2000/svg" width="32" height="32" viewBox="0 0 90 87.2">
	<path d="M86.1 33.1H81V22.5c0-0.3 0-0.9-0.3-1.5 -0.3-0.5-0.6-1.1-0.9-1.3L61.3 1.1c-0.2-0.2-0.6-0.5-1.3-0.8C59.4 0 58.7 0 58.5 0H20.2c-2.1 0-4 1.8-4 4v15.2C7.3 19.3 0 25.6 0 33.2v39.9c0 7.8 7.5 14.1 16.7 14.1h69.4c2.2 0 3.9-1.7 3.9-3.9V37.1C90 35 88.3 33.1 86.1 33.1zM25.5 73.1c0 3.4-4.1 6.3-8.8 6.3 -4.8 0-8.9-3-8.9-6.3V33.2c0-3.4 4-6.3 8.9-6.3 4.8 0 8.8 2.9 8.8 6.3V73.1zM24.1 20.6V7.8h30.5v14.7c0 2.1 1.7 3.9 3.9 3.9h14.6V33H33.2C33.2 27.6 29.5 22.9 24.1 20.6zM46.3 73.5c-1.6 0-3.1-1.4-3.1-3.2 0-1.7 1.5-3.1 3.1-3.1 1.7 0 3.2 1.4 3.2 3.1C49.5 72.1 48.1 73.5 46.3 73.5zM46.3 63.2c-1.6 0-3.1-1.4-3.1-3.2 0-1.7 1.5-3.1 3.1-3.1 1.7 0 3.2 1.4 3.2 3.1C49.5 61.8 48.1 63.2 46.3 63.2zM46.3 53c-1.6 0-3.1-1.5-3.1-3.2s1.5-3.2 3.1-3.2c1.7 0 3.2 1.5 3.2 3.2S48.1 53 46.3 53zM58.4 73.5c-1.7 0-3.1-1.4-3.1-3.2 0-1.7 1.3-3.1 3.1-3.1 1.7 0 3.1 1.4 3.1 3.1C61.5 72.1 60.2 73.5 58.4 73.5zM58.4 63.2c-1.7 0-3.1-1.4-3.1-3.2 0-1.7 1.3-3.1 3.1-3.1 1.7 0 3.1 1.4 3.1 3.1C61.5 61.8 60.2 63.2 58.4 63.2zM58.4 53c-1.7 0-3.1-1.5-3.1-3.2s1.3-3.2 3.1-3.2c1.7 0 3.1 1.5 3.1 3.2S60.2 53 58.4 53zM70.5 73.5c-1.7 0-3.1-1.4-3.1-3.2 0-1.7 1.3-3.1 3.1-3.1 1.7 0 3.2 1.4 3.2 3.1C73.7 72.1 72.3 73.5 70.5 73.5zM70.5 63.2c-1.7 0-3.1-1.4-3.1-3.2 0-1.7 1.3-3.1 3.1-3.1 1.7 0 3.2 1.4 3.2 3.1C73.7 61.8 72.3 63.2 70.5 63.2zM70.5 53c-1.7 0-3.1-1.5-3.1-3.2s1.3-3.2 3.1-3.2c1.7 0 3.2 1.5 3.2 3.2S72.3 53 70.5 53z"></path>
</svg>