<svg class="svg-ico-arr-r" xmlns="http://www.w3.org/2000/svg" width="24" height="24" viewBox="0 0 62 45.2">
	<path d="M0.4 24.5c0.8 2.3 3 3.7 5.6 3.7 11.3 0 22.6 0 33.9 0h1.1c-0.3 0.3-0.5 0.5-0.7 0.6 -2.4 2.1-4.8 4.2-7.1 6.3 -2.9 2.6-2.9 6.6 0 8.8 0.8 0.6 1.8 0.9 2.8 1.3H37.7c1.8-0.4 3.2-1.6 4.6-2.8 5.7-5 11.3-10 17-14.9 1.3-1.1 2.3-2.4 2.7-4.1v-1.6c-0.4-1.9-1.7-3.2-3.1-4.5 -5.7-4.9-11.3-9.9-17-14.9C40.6 1.4 39.3 0.4 37.7 0h-1.8c-0.7 0.3-1.5 0.5-2.2 0.9 -3.1 1.8-3.7 6.1-1.1 8.6 2.5 2.4 5.1 4.5 7.6 6.8 0.2 0.2 0.4 0.4 0.7 0.7h-1c-11.2 0-22.4 0-33.6 0 -3.4 0-5.3 1.5-6.3 4.7C0.1 21.7 0 21.8 0 21.8v1.6C0.1 23.8 0.2 24.2 0.4 24.5z"></path>
</svg>