<svg class="svg-ico-phone" xmlns="http://www.w3.org/2000/svg" width="32" height="32" viewBox="0 0 18.6 18.6">
	<path d="M14 8.6h1c0-2.8-2.2-5-5-5v1C12.2 4.6 14 6.4 14 8.6zM17 8.6h1c0-4.4-3.6-8-8-8v1C13.9 1.6 17 4.7 17 8.6zM11 8.6h1c0-1.1-0.9-2-2-2v1C10.6 7.6 11 8 11 8.6zM18.3 14.4c-0.4-0.4-2.1-2.1-2.8-2.8 -0.7-0.7-1.4 0-2.1 0.7 -0.7 0.7-0.7 0.7-0.7 0.7s-2.1 0.7-4.9-2.1c-2.8-2.8-2.1-4.9-2.1-4.9s0 0 0.7-0.7C7 4.5 7.7 3.8 7 3.1 6.3 2.4 4.5 0.7 4.2 0.3c-0.7-0.7-1.4 0-2.1 0.7C0.6 2.4 1.4 1.6 0.6 2.4c-2.8 2.8 5 10.6 5 10.6s7.8 7.8 10.6 4.9c0.8-0.8 0 0 1.4-1.4C18.3 15.8 19 15.1 18.3 14.4z"></path>
</svg>