<svg class="svg-ico-basket-add" xmlns="http://www.w3.org/2000/svg" width="24" height="24" viewBox="0 0 40.6 29.3">
	<path d="M40.6 27.8c-0.9-7-1.7-13.2-1.2-19.7 0-0.4-0.1-0.7-0.4-1s-0.6-0.4-1-0.4h-4.2v-0.9c0.1-3.2-2.3-5.8-5.2-5.8 -2.9 0-5.3 2.6-5.3 5.8v0.9h-4.2c-0.7 0-1.3 0.6-1.3 1.3v2.2c0 5.8 0 11.8-1.2 17.5 -0.1 0.4 0 0.8 0.3 1.1 0.3 0.3 0.6 0.5 1 0.5h21.4c0.4 0 0.8-0.2 1-0.5C40.6 28.6 40.7 28.2 40.6 27.8zM25.9 5.8c0-1.7 1.2-3.2 2.7-3.2s2.7 1.4 2.7 3.2v0.8h-5.4V5.8zM19.5 26.7c1-5.5 0.9-11 0.9-16.4v-0.9h2.9v4.7h2.6V9.4h5.3v4.7h2.6V9.4h2.8c-0.3 5.8 0.3 11.3 1.1 17.3H19.5zM12.1 16.7c-1-1.1-2.1-2.1-3.3-3.1 -0.3-0.2-0.6-0.5-0.9-0.6H7.5c-0.2 0.1-0.4 0.1-0.6 0.3 -0.6 0.5-0.6 1.3 0 1.8 0.5 0.4 1 0.9 1.5 1.3l0.1 0.1H1.3c-0.5 0-1 0.3-1.2 0.8 0 0.1 0 0.2-0.1 0.2v0.3c0.2 0.7 0.6 1 1.3 1h7.1c-0.1 0.1-0.1 0.1-0.2 0.1 -0.5 0.5-1.1 0.9-1.6 1.4s-0.4 1.4 0.2 1.8c0.1 0.1 0.3 0.1 0.5 0.2h0.4C8 22.2 8.3 22 8.6 21.8c1.2-1 2.3-2 3.5-3.1 0.3-0.3 0.6-0.5 0.6-0.9v-0.3C12.6 17.2 12.4 16.9 12.1 16.7z"></path>
</svg>