<svg class="svg-ico-email-alt" xmlns="http://www.w3.org/2000/svg" width="32" height="32" viewBox="0 0 64 42">
	<path d="M61 0H3C1.3 0 0 1.3 0 3v36c0 1.7 1.3 3 3 3h58c1.7 0 3-1.3 3-3V3C64 1.3 62.7 0 61 0zM54.3 30.5c0.9 0.7 1 2 0.3 2.8 -0.7 0.9-2 1-2.8 0.3l-11.5-9.4 -3.6 3.2c-2.7 2.4-6.7 2.4-9.4 0l-3.5-3.2 -11.5 9.4c-0.9 0.7-2.1 0.6-2.8-0.3 -0.7-0.9-0.6-2.1 0.3-2.8l11-9L9.7 11.5C8.8 10.8 8.7 9.5 9.4 8.7 9.8 8.3 10.2 8.1 10.7 8v0c0.1 0 0.1 0 0.2 0 0.5 0 1.1 0.2 1.5 0.5l17.6 15.8c0.9 0.8 3.2 0.8 4 0L51.7 8.5c0.8-0.7 2.1-0.7 2.8 0.1 0.7 0.8 0.7 2.1-0.1 2.8 0 0 0 0 0 0L43.3 21.4 54.3 30.5z"></path>
</svg>