<svg class="svg-ico-scroll" xmlns="http://www.w3.org/2000/svg" width="32" height="32" viewBox="0 0 36 72">
	<path d="M22 0h-8C6.3 0 0 6.3 0 14v26c0 7.4 5.7 13.4 13 13.9v-4c-5-0.5-9-4.8-9-9.9V14C4 8.5 8.5 4 14 4h8c5.5 0 10 4.5 10 10v26c0 5.2-4 9.4-9 9.9v4c7.3-0.5 13-6.6 13-13.9V14C36 6.3 29.7 0 22 0zM18 21c1.1 0 2-0.9 2-2v-6c0-1.1-0.9-2-2-2s-2 0.9-2 2v6C16 20.1 16.9 21 18 21zM23 63c-0.5 0-1 0.2-1.4 0.6L20 65.2V44c0-1.1-0.9-2-2-2s-2 0.9-2 2v21.2l-1.6-1.6C14 63.2 13.5 63 13 63s-1 0.2-1.4 0.6c-0.8 0.8-0.8 2 0 2.8l1.4 1.4 3.6 3.6c0.1 0.1 0.2 0.2 0.3 0.2l0.1 0.1c0.1 0 0.1 0.1 0.2 0.1 0.1 0 0.1 0 0.2 0.1 0.1 0 0.1 0 0.2 0.1h0.8c0.1 0 0.1 0 0.2-0.1 0.1 0 0.1 0 0.2-0.1 0.1 0 0.1-0.1 0.2-0.1 0 0 0.1 0 0.1-0.1 0.1-0.1 0.2-0.2 0.3-0.2l3.6-3.6 1.4-1.4c0.8-0.8 0.8-2 0-2.8C24 63.2 23.5 63 23 63z"></path>
</svg>