<svg class="svg-ico-share" xmlns="http://www.w3.org/2000/svg" width="32" height="32" viewBox="0 0 70 86">
	<path d="M55 56c-4.8 0-9.1 2.3-11.8 5.8L28.2 50.2C29.3 48 30 45.6 30 43c0-2.6-0.7-5.1-1.9-7.2l15.1-11.6C45.9 27.7 50.2 30 55 30c8.2 0 15-6.8 15-15S63.2 0 55 0 40 6.8 40 15c0 1.3 0.2 2.5 0.5 3.7L24.2 31.2C21.7 29.2 18.5 28 15 28 6.8 28 0 34.8 0 43s6.8 15 15 15c3.5 0 6.7-1.2 9.3-3.2L40.5 67.3C40.2 68.5 40 69.7 40 71c0 8.2 6.8 15 15 15s15-6.8 15-15C70 62.8 63.2 56 55 56zM55 6c5 0 9 4 9 9s-4 9-9 9 -9-4-9-9S50 6 55 6zM15 52c-5 0-9-4-9-9s4-9 9-9 9 4 9 9S20 52 15 52zM55 80c-5 0-9-4-9-9s4-9 9-9 9 4 9 9S60 80 55 80z"></path>
</svg>