<svg class="svg-ico-menu-full" xmlns="http://www.w3.org/2000/svg" width="38" height="18" viewBox="0 0 131 62">
	<path d="M60.4 27.5h1.6c0-0.4 0.1-0.7 0.1-1 0-8.6 0-17.2 0-25.9 0-0.2 0-0.4-0.1-0.6H0v27.4c0.5 0 0.9 0.1 1.4 0.1C21.1 27.5 40.7 27.5 60.4 27.5zM69 0c0 2.8-0.1 5.5-0.1 8.3 0 5.9 0 11.8 0 17.7v1.5H70.4c19.8 0 39.6 0 59.4 0 0.4 0 0.8 0 1.2-0.1V0H69zM1.2 34.4c-0.4 0-0.8 0-1.2 0.1v27.4h62c0-2.8 0.1-5.5 0.1-8.3 0-5.9 0-11.8 0-17.7v-1.5H60.6C40.8 34.4 21 34.4 1.2 34.4zM70.6 34.4h-1.6c0 0.4-0.1 0.7-0.1 1 0 8.6 0 17.2 0 25.9 0 0.2 0 0.4 0.1 0.6H131v-27.4c-0.5 0-0.9-0.1-1.4-0.1C109.9 34.4 90.3 34.4 70.6 34.4z"></path>
</svg>