<svg class="svg-ico-search" xmlns="http://www.w3.org/2000/svg" width="32" height="32" viewBox="0 0 89.8 89.8">
	<path d="M68.1 61c11.4-14.9 10.3-36.3-3.3-49.9C57.6 3.9 48.1 0 37.9 0c-10.1 0-19.7 3.9-26.8 11.1C3.9 18.3 0 27.8 0 37.9c0 10.1 3.9 19.7 11.1 26.8 7.2 7.2 16.7 11.1 26.8 11.1 8.4 0 16.5-2.8 23.1-7.8l21.8 21.7 7.1-7.1L68.1 61zM57.7 57.7c-5.3 5.3-12.3 8.2-19.8 8.2 -7.5 0-14.5-2.9-19.8-8.2C12.9 52.4 10 45.4 10 37.9c0-7.5 2.9-14.5 8.2-19.8C23.5 12.9 30.5 10 37.9 10c7.5 0 14.5 2.9 19.8 8.2C68.6 29.1 68.6 46.8 57.7 57.7z"></path>
</svg>