<svg class="svg-ico-qr" xmlns="http://www.w3.org/2000/svg" width="32" height="32" viewBox="0 0 90 56.3">
	<path d="M15.4 0.2c-9.9 1.6-16.7 10.8-15.2 20.7 1.3 8.7 8.7 14.9 17.1 15.3 -2.1 7.8-7.2 10.9-13.4 12.7 -0.6 0.2-0.5 0.8-0.5 0.8l1 6.2c0 0 0.1 0.5 0.9 0.4 21.4-2.4 35.9-18.7 33.2-38.5C36 4.1 25.3-1.2 15.4 0.2zM89.7 17.8c-2.6-13.7-13.4-19-23.2-17.6 -9.9 1.6-16.7 10.8-15.1 20.7 1.3 8.8 8.6 15 17.1 15.3 -2 7.8-7.3 10.9-13.4 12.7 -0.6 0.2-0.5 0.8-0.5 0.8l0.9 6.2c0 0 0.1 0.5 0.9 0.4C77.9 53.9 92.2 37.6 89.7 17.8z"></path>
</svg>