<svg class="svg-ico-filters" xmlns="http://www.w3.org/2000/svg" width="24" height="24" viewBox="0 0 79.2 89.6">
    <path d="M3.8 18.7h6.6C12 25.1 18 30 24.9 30c6.9 0 12.8-4.8 14.5-11.3h36.1c2.1 0 3.7-1.6 3.7-3.7 0-2.1-1.6-3.7-3.7-3.7H39.3C37.7 4.9 31.7 0 24.8 0 17.9 0 12 4.7 10.4 11.3H3.8c-2.1 0-3.7 1.6-3.7 3.7C0.1 17.1 1.8 18.7 3.8 18.7zM24.8 6.1c4.9 0 8.9 4 8.9 8.9 0 4.9-4 8.9-8.9 8.9 -4.9 0-8.9-4-8.9-8.9C15.9 10.1 19.9 6.1 24.8 6.1zM75.4 41.1h-6.3c-1.6-6.4-7.6-11.3-14.5-11.3s-12.8 4.8-14.5 11.3H3.8c-2.1 0-3.7 1.6-3.7 3.7s1.6 3.7 3.7 3.7h36.4c1.6 6.4 7.6 11.3 14.4 11.3S67.4 55 69.1 48.5h6.3c2.1 0 3.7-1.6 3.7-3.7S77.4 41.1 75.4 41.1zM54.6 53.7c-4.9 0-8.9-4-8.9-8.9s4-8.9 8.9-8.9 8.9 4 8.9 8.9S59.6 53.7 54.6 53.7zM75.4 70.9H39.3c-1.6-6.4-7.6-11.3-14.5-11.3 -6.9 0-12.8 4.8-14.5 11.3H3.7c-2.1 0-3.7 1.6-3.7 3.7s1.6 3.7 3.7 3.7h6.6c1.6 6.4 7.6 11.3 14.5 11.3 6.9 0 12.8-4.8 14.5-11.3h36.1c2.1 0 3.7-1.6 3.7-3.7S77.4 70.9 75.4 70.9zM24.8 83.5c-4.9 0-8.9-4-8.9-8.9s4-8.9 8.9-8.9c4.9 0 8.9 4 8.9 8.9S29.8 83.5 24.8 83.5z"></path>
</svg>