<svg class="svg-ico-basket" xmlns="http://www.w3.org/2000/svg" width="24" height="24" viewBox="0 0 24 29.3">
	<path d="M24 27.8c-0.9-7-1.7-13.2-1.2-19.7 0-0.4-0.1-0.7-0.4-1 -0.3-0.3-0.6-0.4-1-0.4h-4.2V5.8C17.3 2.6 14.9 0 12 0S6.7 2.6 6.7 5.8v0.9H2.5C1.8 6.7 1.2 7.3 1.2 8v2.2C1.2 16 1.2 22 0 27.7c-0.1 0.4 0 0.8 0.3 1.1s0.6 0.5 1 0.5h21.4c0.4 0 0.8-0.2 1-0.5C24 28.6 24.1 28.2 24 27.8zM9.3 5.8c0-1.7 1.2-3.2 2.7-3.2s2.7 1.4 2.7 3.2v0.8H9.3V5.8zM2.9 26.7c1-5.5 0.9-11 0.9-16.4V9.4h2.9v4.7h2.6V9.4h5.3v4.7h2.6V9.4H20c-0.3 5.8 0.3 11.3 1.1 17.3H2.9z"></path>
</svg>