<svg class="svg-ico-basket-alt" xmlns="http://www.w3.org/2000/svg" width="24" height="24" viewBox="0 0 24 29.3">
	<path d="M24 27.8c-0.9-7-1.7-13.2-1.2-19.7 0-0.4-0.1-0.7-0.4-1 -0.3-0.3-0.6-0.4-1-0.4h-4.2V5.8c0-3.2-2.4-5.8-5.3-5.8 -2.9 0-5.3 2.6-5.3 5.8v0.9H2.5C1.8 6.7 1.2 7.3 1.2 8l0 2.2c0 5.8 0 11.8-1.2 17.5 -0.1 0.4 0 0.8 0.3 1.1 0.3 0.3 0.6 0.5 1 0.5h21.4c0.4 0 0.8-0.2 1-0.5C24 28.6 24.1 28.2 24 27.8zM9.3 5.8c0-1.7 1.2-3.2 2.7-3.2 1.5 0 2.7 1.4 2.7 3.2v0.9L9.3 6.6V5.8zM2.9 26.7c1-5.5 0.9-11 0.9-16.4L3.8 9.3h16.2c-0.3 5.8 0.3 11.3 1.1 17.3H2.9z"></path>
</svg>