<svg class="svg-ico-menu-short" xmlns="http://www.w3.org/2000/svg" width="38" height="18" viewBox="0 0 177 83.7">
	<path d="M0 37.1c0.3 0 0.6 0.1 1 0.1 11.7 0 23.4 0 35.1 0 0.4 0 0.7-0.1 1.2-0.1v-1.7c0-11.2 0-22.5 0-33.7 0-0.6 0-1.1 0.1-1.7H0V37.1zM139.6 0c0 0.6 0.1 1.1 0.1 1.7 0 11.2 0 22.5 0 33.7v1.8h1.7c11.4 0 22.8 0 34.3 0 0.5 0 0.9-0.1 1.4-0.1V0H139.6zM37.3 48.4v-1.8h-1.7c-11.4 0-22.8 0-34.2 0 -0.5 0-0.9 0.1-1.4 0.1v37.1h37.4c0-0.6-0.1-1.1-0.1-1.7C37.3 70.8 37.3 59.6 37.3 48.4zM140.9 46.5c-0.4 0-0.7 0.1-1.2 0.1v1.7c0 11.2 0 22.5 0 33.7 0 0.6 0 1.1-0.1 1.7H177V46.6c-0.3 0-0.6-0.1-1-0.1C164.3 46.5 152.6 46.5 140.9 46.5zM83.7 0H46.6c0 12.2 0 24.3 0 36.5 0 0.2 0.1 0.4 0.1 0.6h37c0-0.5 0.1-0.9 0.1-1.3 0-11.6 0-23.1 0-34.7C83.8 0.7 83.8 0.4 83.7 0zM93.3 37.1h37c0.1-0.2 0.1-0.3 0.1-0.5 0-12.2 0-24.4 0-36.6H93.3c0 0.3-0.1 0.6-0.1 0.8 0 11.7 0 23.5 0 35.2C93.2 36.4 93.3 36.8 93.3 37.1zM83.7 46.6H46.7c-0.1 0.2-0.1 0.3-0.1 0.5 0 12.2 0 24.4 0 36.6h37.1c0-0.3 0.1-0.6 0.1-0.8 0-11.7 0-23.5 0-35.2C83.8 47.3 83.7 47 83.7 46.6zM93.3 46.6c0 0.5-0.1 0.9-0.1 1.3 0 11.6 0 23.1 0 34.7 0 0.4 0.1 0.7 0.1 1.1h37.1c0-12.2 0-24.3 0-36.5 0-0.2-0.1-0.4-0.1-0.6H93.3z"></path>
</svg>