<svg class="svg-ico-catalog" xmlns="http://www.w3.org/2000/svg" width="32" height="32" viewBox="0 0 74.6 89.9">
	<path d="M71 0h-53.8c-0.2 0-0.3 0-0.5 0.1 -0.9-0.2-1.9 0.1-2.6 0.8l-13.3 13.8c-0.7 0.7-0.9 1.5-0.8 2.4 0 0.1 0 0.1 0 0.2v69c0 2 1.6 3.6 3.6 3.6h67.4c2 0 3.6-1.6 3.6-3.6V3.7C74.5 1.7 72.9 0 71 0zM5.9 84V19.8h10.3c1.7 0 3-1.3 3-3V6h49.3l0.1 78H5.9zM46.4 61.8h-18.4c-1.5 0-2.7 1.2-2.7 2.7s1.2 2.7 2.7 2.7h18.4c1.5 0 2.7-1.2 2.7-2.7C49.2 63 47.9 61.8 46.4 61.8zM44.9 44.2l-4.7 4.7V27.5c0-1.5-1.2-2.7-2.7-2.7s-2.7 1.2-2.7 2.7V49l-4.7-4.7c-1.1-1.1-2.8-1.1-3.9 0 -1.3 1-1.3 2.7-0.2 3.7l9.4 9.4c0.5 0.5 1.1 0.8 1.8 0.8h0.3c0.7 0 1.3-0.3 1.8-0.8l9.4-9.4c0.5-0.5 0.8-1.2 0.8-1.9s-0.3-1.4-0.8-1.9C47.6 43.1 45.9 43.1 44.9 44.2z"></path>
</svg>