<?xml version="1.0" encoding="utf-8"?>
<!-- Generator: Adobe Illustrator 21.0.2, SVG Export Plug-In . SVG Version: 6.00 Build 0)  -->
<svg version="1.1" id="Layer_1" xmlns="http://www.w3.org/2000/svg" xmlns:xlink="http://www.w3.org/1999/xlink" x="0px" y="0px"
	 viewBox="0 0 252 304.302" style="enable-background:new 0 0 252 304.302;" xml:space="preserve">
<style type="text/css">
	.st0{display:none;fill:#FFFFFF;}
	.st1{font-family:'MinionPro-BoldCn';}
	.st2{font-size:79.68px;}
</style>
<text transform="matrix(1.0733 0 0 1 44.5391 240.4371)" class="st0 st1 st2">DOC</text>
<path d="M50.229,0h-0.009L0.029,50.191h50.2V0z M129.037,191.353c-7.184,0-11.716,9.323-11.716,21.992
	c0,13.546,4.447,25.021,13.427,25.021c6.586,0,11.118-7.49,11.118-21.833C141.866,201.075,137.248,191.353,129.037,191.353z
	 M67.974,192.389c-2.138,0-3.335,0.398-3.935,0.797c-0.599,0.478-0.77,1.594-0.77,4.063v32.749c0,5.339,1.369,7.172,5.645,7.172
	c8.553,0,15.737-7.57,15.737-22.869c0-8.048-2.138-13.944-5.388-17.37C76.185,193.744,72.336,192.389,67.974,192.389z M59.738,0
	v59.7H0v244.602h252V0H59.738z M58.844,81.03h134.321v9.509H58.844V81.03z M168.735,117.974v9.509H83.265v-9.509H168.735z
	 M87.645,233.903c-5.73,4.542-13.428,6.534-23.092,6.534H45.395v-2.63c6.158-0.398,6.928-1.115,6.928-7.809V199.72
	c0-6.773-0.684-7.331-6.329-7.81v-2.629H68.06c10.092,0,17.447,1.992,22.322,6.932c3.677,3.745,6.5,9.403,6.5,16.654
	C96.881,222.669,93.29,229.441,87.645,233.903z M129.465,241.473c-14.881,0-24.631-11.315-24.631-26.454
	c0-13.068,8.21-26.773,25.486-26.773c13.599,0,24.033,10.438,24.033,26.215C154.354,231.274,143.491,241.473,129.465,241.473z
	 M203.785,239.56c-2.139,0.479-8.467,1.913-13.685,1.913c-20.013,0-27.71-13.387-27.71-25.817c0-16.096,11.546-27.41,29.763-27.41
	c5.389,0,10.69,1.275,12.914,1.674c0.599,4.303,1.026,7.968,1.54,12.271l-2.908,0.638c-2.736-8.686-7.611-11.395-13.256-11.395
	c-9.579,0-15.737,10.757-15.737,22.629c0,14.343,6.928,24.144,16.25,24.144c6.072,0,10.349-4.303,13.94-11.395l2.908,0.957
	C206.864,231.274,205.067,236.851,203.785,239.56z"/>
</svg>
